<svg width="103" height="27" viewBox="0 0 103 27" fill="none" xmlns="http://www.w3.org/2000/svg">
<path d="M0.244141 19.3018V15.2393C0.980469 15.8571 1.78027 16.3226 2.64355 16.6357C3.50684 16.9404 4.37858 17.0928 5.25879 17.0928C5.77507 17.0928 6.22363 17.0462 6.60449 16.9531C6.99382 16.86 7.31543 16.7331 7.56934 16.5723C7.83171 16.403 8.02637 16.2083 8.15332 15.9883C8.28027 15.7598 8.34375 15.5143 8.34375 15.252C8.34375 14.8965 8.24219 14.5791 8.03906 14.2998C7.83594 14.0205 7.55664 13.7624 7.20117 13.5254C6.85417 13.2884 6.43945 13.0599 5.95703 12.8398C5.47461 12.6198 4.9541 12.3955 4.39551 12.167C2.97363 11.5745 1.91146 10.8509 1.20898 9.99609C0.514974 9.14128 0.167969 8.10872 0.167969 6.89844C0.167969 5.95052 0.358398 5.13802 0.739258 4.46094C1.12012 3.77539 1.63639 3.21257 2.28809 2.77246C2.94824 2.33236 3.70996 2.01074 4.57324 1.80762C5.43652 1.59603 6.35059 1.49023 7.31543 1.49023C8.26335 1.49023 9.10124 1.54948 9.8291 1.66797C10.5654 1.77799 11.2425 1.9515 11.8604 2.18848V5.98438C11.5557 5.77279 11.2214 5.58659 10.8574 5.42578C10.502 5.26497 10.1338 5.13379 9.75293 5.03223C9.37207 4.9222 8.99121 4.8418 8.61035 4.79102C8.23796 4.74023 7.88249 4.71484 7.54395 4.71484C7.07845 4.71484 6.65527 4.76139 6.27441 4.85449C5.89355 4.93913 5.57194 5.06185 5.30957 5.22266C5.0472 5.38346 4.84408 5.57812 4.7002 5.80664C4.55632 6.02669 4.48438 6.27637 4.48438 6.55566C4.48438 6.86035 4.56478 7.13542 4.72559 7.38086C4.88639 7.61784 5.11491 7.84635 5.41113 8.06641C5.70736 8.27799 6.06706 8.48958 6.49023 8.70117C6.91341 8.9043 7.3916 9.11589 7.9248 9.33594C8.65267 9.64062 9.30436 9.96647 9.87988 10.3135C10.4639 10.652 10.9632 11.0371 11.3779 11.4688C11.7926 11.9004 12.11 12.3955 12.3301 12.9541C12.5501 13.5042 12.6602 14.1475 12.6602 14.8838C12.6602 15.8994 12.4655 16.7542 12.0762 17.4482C11.6953 18.1338 11.1748 18.6924 10.5146 19.124C9.85449 19.5472 9.08431 19.8519 8.2041 20.0381C7.33236 20.2243 6.40983 20.3174 5.43652 20.3174C4.43783 20.3174 3.48568 20.2327 2.58008 20.0635C1.68294 19.8942 0.904297 19.6403 0.244141 19.3018ZM21.458 20.3174C19.2913 20.3174 17.5859 19.7122 16.3418 18.502C15.1061 17.2832 14.4883 15.6328 14.4883 13.5508C14.4883 11.401 15.1315 9.72103 16.418 8.51074C17.7044 7.29199 19.4437 6.68262 21.6357 6.68262C23.7939 6.68262 25.4867 7.29199 26.7139 8.51074C27.9411 9.72103 28.5547 11.3249 28.5547 13.3223C28.5547 15.4805 27.9199 17.1859 26.6504 18.4385C25.3893 19.6911 23.6585 20.3174 21.458 20.3174ZM21.5596 9.75488C20.6117 9.75488 19.8753 10.0807 19.3506 10.7324C18.8258 11.3841 18.5635 12.3066 18.5635 13.5C18.5635 15.9967 19.5706 17.2451 21.585 17.2451C23.5062 17.2451 24.4668 15.9629 24.4668 13.3984C24.4668 10.9694 23.4977 9.75488 21.5596 9.75488ZM41.0088 19.5303C40.1032 20.055 38.7956 20.3174 37.0859 20.3174C35.0885 20.3174 33.472 19.7122 32.2363 18.502C31.0007 17.2917 30.3828 15.7301 30.3828 13.8174C30.3828 11.6084 31.043 9.86914 32.3633 8.59961C33.6921 7.32161 35.4652 6.68262 37.6826 6.68262C39.2145 6.68262 40.3232 6.88574 41.0088 7.29199V10.6943C40.1709 10.068 39.2357 9.75488 38.2031 9.75488C37.0521 9.75488 36.138 10.0934 35.4609 10.7705C34.7923 11.4391 34.458 12.3659 34.458 13.5508C34.458 14.7018 34.7796 15.6074 35.4229 16.2676C36.0661 16.9193 36.9505 17.2451 38.0762 17.2451C39.0749 17.2451 40.0524 16.932 41.0088 16.3057V19.5303ZM45.6807 4.94336C45.0036 4.94336 44.4492 4.74447 44.0176 4.34668C43.5859 3.94043 43.3701 3.44531 43.3701 2.86133C43.3701 2.26042 43.5859 1.76953 44.0176 1.38867C44.4492 1.00781 45.0036 0.817383 45.6807 0.817383C46.3662 0.817383 46.9206 1.00781 47.3438 1.38867C47.7754 1.76953 47.9912 2.26042 47.9912 2.86133C47.9912 3.4707 47.7754 3.97005 47.3438 4.35938C46.9206 4.7487 46.3662 4.94336 45.6807 4.94336ZM47.6611 20H43.6494V7H47.6611V20ZM62.7178 14.6426H54.2373C54.3727 16.5299 55.5618 17.4736 57.8047 17.4736C59.235 17.4736 60.4919 17.1351 61.5752 16.458V19.3525C60.3734 19.9958 58.8118 20.3174 56.8906 20.3174C54.7917 20.3174 53.1624 19.7376 52.0029 18.5781C50.8434 17.4102 50.2637 15.7852 50.2637 13.7031C50.2637 11.5449 50.89 9.83529 52.1426 8.57422C53.3952 7.31315 54.9355 6.68262 56.7637 6.68262C58.6595 6.68262 60.1237 7.24544 61.1562 8.37109C62.1973 9.49674 62.7178 11.0244 62.7178 12.9541V14.6426ZM58.998 12.1797C58.998 10.3177 58.2448 9.38672 56.7383 9.38672C56.0951 9.38672 55.5365 9.65332 55.0625 10.1865C54.597 10.7197 54.3135 11.3841 54.2119 12.1797H58.998ZM69.1162 20H65.1045V0.753906H69.1162V20ZM74.5244 4.94336C73.8473 4.94336 73.293 4.74447 72.8613 4.34668C72.4297 3.94043 72.2139 3.44531 72.2139 2.86133C72.2139 2.26042 72.4297 1.76953 72.8613 1.38867C73.293 1.00781 73.8473 0.817383 74.5244 0.817383C75.21 0.817383 75.7643 1.00781 76.1875 1.38867C76.6191 1.76953 76.835 2.26042 76.835 2.86133C76.835 3.4707 76.6191 3.97005 76.1875 4.35938C75.7643 4.7487 75.21 4.94336 74.5244 4.94336ZM76.5049 20H72.4932V7H76.5049V20ZM87.7402 19.8477C87.1478 20.1608 86.2549 20.3174 85.0615 20.3174C82.2347 20.3174 80.8213 18.849 80.8213 15.9121V9.95801H78.7139V7H80.8213V4.19434L84.8203 3.05176V7H87.7402V9.95801H84.8203V15.2139C84.8203 16.568 85.3577 17.2451 86.4326 17.2451C86.8558 17.2451 87.2917 17.1224 87.7402 16.877V19.8477ZM102.391 7L97.1094 21.041C95.8398 24.418 93.9271 26.1064 91.3711 26.1064C90.3978 26.1064 89.598 25.9964 88.9717 25.7764V22.5771C89.5049 22.8903 90.0846 23.0469 90.7109 23.0469C91.7435 23.0469 92.4629 22.5602 92.8691 21.5869L93.5547 19.9746L88.2734 7H92.7168L95.1416 14.9092C95.2939 15.4001 95.4124 15.9798 95.4971 16.6484H95.5479C95.624 16.1576 95.7637 15.5863 95.9668 14.9346L98.417 7H102.391Z" fill="white"/>
</svg>
